<svg width="24" height="25" viewBox="0 0 24 25" fill="none" xmlns="http://www.w3.org/2000/svg">
<g clip-path="url(#clip0_2_851)">
<path d="M22 3.5H2C1.46957 3.5 0.960859 3.71071 0.585786 4.08579C0.210714 4.46086 0 4.96957 0 5.5L0 19.5C0 20.0304 0.210714 20.5391 0.585786 20.9142C0.960859 21.2893 1.46957 21.5 2 21.5H22C22.5304 21.5 23.0391 21.2893 23.4142 20.9142C23.7893 20.5391 24 20.0304 24 19.5V5.5C24 4.96957 23.7893 4.46086 23.4142 4.08579C23.0391 3.71071 22.5304 3.5 22 3.5ZM22 19.5H2V5.5H22V19.5ZM21 6.5H14V11.5H21V6.5ZM20 8.5L17.5 10.25L15 8.5V7.5L17.5 9.25L20 7.5V8.5ZM9 12.5C9.79565 12.5 10.5587 12.1839 11.1213 11.6213C11.6839 11.0587 12 10.2956 12 9.5C12 8.70435 11.6839 7.94129 11.1213 7.37868C10.5587 6.81607 9.79565 6.5 9 6.5C8.20435 6.5 7.44129 6.81607 6.87868 7.37868C6.31607 7.94129 6 8.70435 6 9.5C6 10.2956 6.31607 11.0587 6.87868 11.6213C7.44129 12.1839 8.20435 12.5 9 12.5ZM9 8.5C9.26522 8.5 9.51957 8.60536 9.70711 8.79289C9.89464 8.98043 10 9.23478 10 9.5C10 9.76522 9.89464 10.0196 9.70711 10.2071C9.51957 10.3946 9.26522 10.5 9 10.5C8.73478 10.5 8.48043 10.3946 8.29289 10.2071C8.10536 10.0196 8 9.76522 8 9.5C8 9.23478 8.10536 8.98043 8.29289 8.79289C8.48043 8.60536 8.73478 8.5 9 8.5ZM15 17.09C15 14.59 11.03 13.5 9 13.5C6.97 13.5 3 14.59 3 17.09V18.5H15V17.09ZM5.5 16.5C6.22 16 7.7 15.5 9 15.5C10.3 15.5 11.77 16 12.5 16.5H5.5Z" fill="#FF3C5F"/>
</g>
<defs>
<clipPath id="clip0_2_851">
<rect width="24" height="24" fill="white" transform="translate(0 0.5)"/>
</clipPath>
</defs>
</svg>
