<svg width="19" height="19" viewBox="0 0 19 19" fill="none" xmlns="http://www.w3.org/2000/svg">
<path d="M13.4583 15.0416V3.95829H5.54159V15.0416H13.4583ZM13.4583 0.791626C13.8782 0.791626 14.2809 0.958441 14.5778 1.25537C14.8748 1.55231 15.0416 1.95503 15.0416 2.37496V16.625C15.0416 17.0449 14.8748 17.4476 14.5778 17.7445C14.2809 18.0415 13.8782 18.2083 13.4583 18.2083H5.54159C4.66284 18.2083 3.95825 17.4958 3.95825 16.625V2.37496C3.95825 1.49621 4.66284 0.791626 5.54159 0.791626H13.4583ZM7.12492 5.54163H11.8749V7.12496H7.12492V5.54163ZM7.12492 8.70829H10.2916V10.2916H7.12492V8.70829Z" fill="#FF3C5F"/>
</svg>
