<svg width="45" height="45" viewBox="0 0 45 45" fill="none" xmlns="http://www.w3.org/2000/svg">
<rect width="45" height="45" fill="#FF3C5F"/>
<path d="M23 14.6667L31.3333 23H26.3333V29.6667H19.6667V23H14.6667L23 14.6667ZM34.6667 38H11.3333C10.4493 38 9.60143 37.6488 8.97631 37.0237C8.35119 36.3986 8 35.5507 8 34.6667V11.3333C8 10.4493 8.35119 9.60143 8.97631 8.97631C9.60143 8.35119 10.4493 8 11.3333 8H34.6667C35.5507 8 36.3986 8.35119 37.0237 8.97631C37.6488 9.60143 38 10.4493 38 11.3333V34.6667C38 35.5507 37.6488 36.3986 37.0237 37.0237C36.3986 37.6488 35.5507 38 34.6667 38ZM34.6667 34.6667V11.3333H11.3333V34.6667H34.6667Z" fill="white"/>
</svg>
