<svg width="20" height="22" viewBox="0 0 20 22" fill="none" xmlns="http://www.w3.org/2000/svg">
<path d="M17.1 7.7C18.9 9.5 18.9 12.3 17.1 14.2L18.1 15.2C20.6 12.9 20.6 9.1 18.1 6.7L17.1 7.7ZM16 8.8L15 9.8C15.5 10.5 15.5 11.4 15 12.1L16 13.1C17.2 11.9 17.2 10.1 16 8.8ZM12 0H2C1.46957 0 0.960859 0.210714 0.585786 0.585786C0.210714 0.960859 0 1.46957 0 2V20C0 20.5304 0.210714 21.0391 0.585786 21.4142C0.960859 21.7893 1.46957 22 2 22H12C12.5304 22 13.0391 21.7893 13.4142 21.4142C13.7893 21.0391 14 20.5304 14 20V2C14 1.46957 13.7893 0.960859 13.4142 0.585786C13.0391 0.210714 12.5304 0 12 0ZM12 19H2V3H12V19Z" fill="#FF3C5F"/>
</svg>
