<svg width="19" height="20" viewBox="0 0 19 20" fill="none" xmlns="http://www.w3.org/2000/svg">
<path d="M15.8333 11.5834H3.16659V6.83337H5.54159V8.41671H7.12492V6.83337H11.8749V8.41671H13.4583V6.83337H15.8333V11.5834ZM15.8333 15.5417H3.16659V13.9584H15.8333V15.5417ZM7.12492 3.66671H11.8749V5.25004H7.12492V3.66671ZM15.8333 5.25004H13.4583V3.66671C13.4583 2.78796 12.7537 2.08337 11.8749 2.08337H7.12492C6.24617 2.08337 5.54159 2.78796 5.54159 3.66671V5.25004H3.16659C2.28784 5.25004 1.58325 5.95462 1.58325 6.83337V15.5417C1.58325 16.4205 2.28784 17.125 3.16659 17.125H15.8333C16.712 17.125 17.4166 16.4205 17.4166 15.5417V6.83337C17.4166 5.95462 16.712 5.25004 15.8333 5.25004Z" fill="#FF3C5F"/>
</svg>
